<?xml version="1.0" encoding="UTF-8" standalone="no"?>
<svg
   xmlns:dc="http://purl.org/dc/elements/1.1/"
   xmlns:cc="http://creativecommons.org/ns#"
   xmlns:rdf="http://www.w3.org/1999/02/22-rdf-syntax-ns#"
   xmlns:svg="http://www.w3.org/2000/svg"
   xmlns="http://www.w3.org/2000/svg"
   id="svg4203"
   viewBox="0 0 34.12999 10.00328"
   height="12.504099"
   width="42.662544"
   y="0in"
   x="0in"
   version="1.2">
  <metadata
     id="metadata4233">
    <rdf:RDF>
      <cc:Work
         rdf:about="">
        <dc:format>image/svg+xml</dc:format>
        <dc:type
           rdf:resource="http://purl.org/dc/dcmitype/StillImage" />
        <dc:title></dc:title>
      </cc:Work>
    </rdf:RDF>
  </metadata>
  <defs
     id="defs4231" />
  <g
     id="g5058">
    <rect
       y="3.9918401"
       x="1.9748962"
       height="0.72000003"
       id="connector0pin"
       width="0.72000003"
       style="fill:none" />
    <rect
       y="3.9918401"
       x="31.435095"
       height="0.72000003"
       id="connector1pin"
       width="0.72000003"
       style="fill:none" />
    <line
       y2="5.0394402"
       x2="3.7100964"
       id="connector0leg"
       y1="5.0394402"
       x1="2.6624961"
       style="fill:none;stroke:#8c8c8c;stroke-width:2.09520006;stroke-linecap:round" />
    <line
       y2="5.0394402"
       x2="30.419897"
       id="connector1leg"
       y1="5.0394402"
       x1="31.467495"
       style="fill:none;stroke:#8c8c8c;stroke-width:2.09520006;stroke-linecap:round" />
    <path
       d="m 2.6624961,5.0394401 28.3666009,0"
       id="path4216"
       style="fill:none;stroke:#8c8c8c;stroke-width:2.09520006" />
  </g>
  <g
     transform="translate(1.2077337,1.6001752)"
     id="g4311"
     partID="57520">
    <g
       id="g4313"
       transform="translate(3.6e-6,0)">
      <g
         id="breadboard-2">
        <path
           style="fill:#7bc6b8"
           id="body-5"
           d="M 10.6549,0.301997 C 10.294904,0.135999 9.675909,0.007 9.27992,0.007 l -1.98697,-7e-8 c -0.395996,0 -0.719993,0.323996 -0.719993,0.719993 l 0,5.35593997 c 0,0.395996 0.323996,0.719993 0.719993,0.719993 l 1.98699,4.1e-6 c 0.395996,0 1.01499,-0.135999 1.37498,-0.295997 l 0.072,-0.035 C 11.086916,6.306935 11.705911,6.176936 12.1019,6.176936 l 7.18493,0 c 0.396996,0 1.01599,0.136999 1.37498,0.294997 l 0.072,0.035 c 0.360996,0.165998 0.978991,0.295997 1.37598,0.295997 l 1.98698,0 c 0.395996,0 0.719993,-0.322997 0.719993,-0.719993 L 24.8167,0.726991 c 0,-0.395996 -0.322997,-0.719993 -0.719993,-0.719993 l -1.98698,0 c -0.396996,0 -1.01499,0.136999 -1.37598,0.294997 l -0.072,0.0359996 c -0.358996,0.165998 -0.97799,0.294997 -1.37498,0.294997 l -7.18493,0 c -0.395996,0 -1.01499,-0.136999 -1.37498,-0.294997 L 10.6549,0.301997 Z" />
        <rect
           style="fill:#ad9f4e"
           height="6.7959299"
           id="band_5"
           x="22.4258"
           y="0"
           width="0.70299298" />
        <rect
           style="fill:#000000"
           height="5.5369401"
           id="band_3"
           x="15.1399"
           y="0.632994"
           width="1.85098" />
        <rect
           style="fill:#c40808"
           height="5.5369401"
           id="band_2"
           x="12.1599"
           y="0.632994"
           width="1.84998" />
        <path
           style="fill:#000000"
           id="band_4"
           d="m 18.0038,0.635993 c 0,0 1.19699,0 1.39999,0 0.203,0 0.437995,-0.0629994 0.437995,-0.0629994 l 0,5.67194 c 0,0 -0.202998,-0.064999 -0.437995,-0.064999 -0.234997,0 -1.39999,-0.007 -1.39999,-0.007 l 0,-5.5369413 z" />
        <path
           style="fill:#c40808"
           id="band_1"
           d="M 11.0359,0.445995 C 10.920901,0.4099954 10.812902,0.3739957 10.725903,0.330996 l -0.072,-0.0359996 C 10.2949,0.129999 9.67594,0 9.27994,0 l -0.08705,0 0,6.79593 0.08705,0 c 0.395996,0 1.01499,-0.136999 1.37498,-0.294997 l 0.072,-0.036 c 0.086,-0.044 0.194998,-0.078999 0.309997,-0.114999 L 11.0369,0.445995 Z" />
        <path
           style="fill:#000000;fill-opacity:0.4"
           id="Shadow-0"
           d="m 24.1188,3.89596 0,0 c 0,0.379997 -0.129999,0.698993 -0.294997,0.698993 l -1.92298,0 c -0.379997,0 -0.97799,-0.055999 -1.33199,-0.121999 l -0.073,-0.016 C 20.150836,4.391955 19.547845,4.334955 19.162843,4.334955 l -6.94693,0 c -0.381996,0 -0.978991,0.056999 -1.33199,0.121999 l -0.072,0.015 C 10.466927,4.5379534 9.8689333,4.594953 9.4799343,4.594953 l -0.3169943,-3e-6 -1.00102,0 -0.309997,0 c -0.381996,0 -0.697993,0.292997 -0.697993,0.644993 l 0,0.246997 0,0.158998 0,0.172998 c 0,0.359996 0.315996,0.645993 0.697993,0.645993 l 1.61999,0 c 0.380996,0 0.978991,-0.122999 1.33199,-0.267998 l 0.072,-0.027 c 0.345997,-0.141998 0.95099,-0.265998 1.33199,-0.265998 l 6.94593,0 c 0.379997,0 0.97799,0.123998 1.33399,0.265998 l 0.074,0.028 c 0.345997,0.144999 0.944993,0.266998 1.33399,0.266998 l 2.22498,0 c 0.380996,0 0.698993,-0.294997 0.698993,-0.644993 l 2.5e-5,-0.540986 0,-0.97299 0,-1.84398 c -0.277,0.108 -0.701,0.41099 -0.701,1.43398 z" />
        <rect
           height="3.1529701"
           id="ShadowExtra-3"
           x="22.4258"
           y="3.2899699"
           width="0.70299298" />
        <path
           style="fill:#ffffff"
           id="ReflexRight-9"
           d="m 20.1588,0.892994 c 0.229998,0 0.490995,-0.100999 0.661993,-0.172998 0.201998,-0.0789991 0.576994,-0.143999 0.966989,-0.143999 l 1.46099,0 c 0.224998,0 0.224998,0.244997 0.224998,0.374996 0,0.129999 -0.016,0.381996 -0.224998,0.381996 l -3.06097,0 c -0.106999,0 -0.229998,-0.114999 -0.229998,-0.223998 0.006,-0.087001 0.078,-0.215997 0.200996,-0.215997 z" />
        <circle
           style="fill:#ffffff"
           r="0.43199599"
           id="ReflexLeft-2"
           cx="7.4079399"
           cy="0.94299102" />
        <rect
           style="fill:#ffff33"
           height="1.61999"
           id="Reflex_gold-8"
           x="22.4258"
           y="0.22999801"
           width="0.70299298" />
        <rect
           style="fill:#ffffff"
           height="0.74899399"
           id="Reflex_extra-3"
           x="22.4258"
           y="0.58999401"
           width="0.70299298" />
      </g>
    </g>
  </g>
</svg>
